<svg width="50" height="50" viewBox="0 0 50 50" fill="none" xmlns="http://www.w3.org/2000/svg">
<g clip-path="url(#clip0_547_9)">
<path fill-rule="evenodd" clip-rule="evenodd" d="M44.8872 10.6474C45.4731 11.2335 45.8022 12.0282 45.8022 12.8568C45.8022 13.6855 45.4731 14.4802 44.8872 15.0662L21.4643 38.4891C21.1548 38.7987 20.7873 39.0443 20.3828 39.2119C19.9783 39.3794 19.5448 39.4657 19.107 39.4657C18.6692 39.4657 18.2357 39.3794 17.8312 39.2119C17.4268 39.0443 17.0593 38.7987 16.7497 38.4891L5.11223 26.8537C4.81376 26.5654 4.57569 26.2206 4.41191 25.8393C4.24813 25.4581 4.16193 25.048 4.15832 24.6331C4.15472 24.2181 4.23378 23.8066 4.39091 23.4226C4.54804 23.0385 4.78008 22.6896 5.07349 22.3962C5.36691 22.1028 5.71582 21.8708 6.09987 21.7136C6.48392 21.5565 6.89542 21.4774 7.31036 21.481C7.72529 21.4846 8.13536 21.5708 8.51662 21.7346C8.89788 21.8984 9.24271 22.1365 9.53098 22.4349L19.106 32.0099L40.4664 10.6474C40.7566 10.357 41.1012 10.1267 41.4805 9.96951C41.8597 9.81234 42.2663 9.73145 42.6768 9.73145C43.0874 9.73145 43.4939 9.81234 43.8732 9.96951C44.2524 10.1267 44.597 10.357 44.8872 10.6474Z" fill="white"/>
</g>
<defs>
<clipPath id="clip0_547_9">
<rect width="50" height="50" fill="white"/>
</clipPath>
</defs>
</svg>
