<svg width="131" height="30" viewBox="0 0 131 30" fill="none" xmlns="http://www.w3.org/2000/svg">
<path d="M5.73224 1.36364V29H0.725852V1.36364H5.73224ZM9.9391 5.56037V1.36364H31.9888V5.56037H23.4469V29H18.481V5.56037H9.9391ZM40.1664 1.36364V4.11648C40.1664 4.90814 40.0134 5.7313 39.7076 6.58594C39.4107 7.43158 39.0014 8.24124 38.4796 9.01491C37.9578 9.77959 37.3641 10.4363 36.6983 10.9851L34.4313 9.5142C34.9261 8.76752 35.3579 7.96236 35.7267 7.09872C36.0956 6.22609 36.28 5.241 36.28 4.14347V1.36364H40.1664ZM59.3857 8.96094C59.2597 7.78243 58.7289 6.86482 57.7933 6.2081C56.8667 5.55137 55.6612 5.22301 54.1768 5.22301C53.1333 5.22301 52.2382 5.38044 51.4915 5.69531C50.7448 6.01018 50.1735 6.4375 49.7777 6.97727C49.3819 7.51705 49.1795 8.13329 49.1705 8.82599C49.1705 9.40175 49.3009 9.90104 49.5618 10.3239C49.8317 10.7467 50.196 11.1065 50.6548 11.4034C51.1136 11.6913 51.6219 11.9342 52.1797 12.1321C52.7375 12.33 53.2997 12.4964 53.8665 12.6314L56.4574 13.2791C57.5009 13.522 58.504 13.8504 59.4666 14.2642C60.4382 14.678 61.3063 15.1998 62.071 15.8295C62.8447 16.4593 63.4564 17.2195 63.9062 18.1101C64.3561 19.0007 64.581 20.0443 64.581 21.2408C64.581 22.8601 64.1671 24.286 63.3395 25.5185C62.5118 26.742 61.3153 27.7 59.75 28.3928C58.1937 29.0765 56.3089 29.4183 54.0959 29.4183C51.9458 29.4183 50.0791 29.0855 48.4957 28.4197C46.9214 27.754 45.6889 26.7824 44.7983 25.505C43.9167 24.2275 43.4399 22.6712 43.3679 20.8359H48.2933C48.3653 21.7985 48.6622 22.5992 49.1839 23.2379C49.7057 23.8767 50.3849 24.3535 51.2216 24.6683C52.0672 24.9832 53.0118 25.1406 54.0554 25.1406C55.1439 25.1406 56.0975 24.9787 56.9162 24.6548C57.7438 24.322 58.3916 23.8632 58.8594 23.2784C59.3272 22.6847 59.5656 21.992 59.5746 21.2003C59.5656 20.4806 59.3542 19.8868 58.9403 19.419C58.5265 18.9422 57.9463 18.5464 57.1996 18.2315C56.4619 17.9077 55.5982 17.6198 54.6087 17.3679L51.4645 16.5582C49.1884 15.9735 47.3892 15.0874 46.0668 13.8999C44.7533 12.7034 44.0966 11.1155 44.0966 9.13636C44.0966 7.50805 44.5374 6.08215 45.419 4.85866C46.3097 3.63518 47.5196 2.68608 49.049 2.01136C50.5784 1.32765 52.3101 0.985794 54.2443 0.985794C56.2055 0.985794 57.9238 1.32765 59.3991 2.01136C60.8835 2.68608 62.0485 3.62618 62.8942 4.83167C63.7398 6.02817 64.1761 7.40459 64.2031 8.96094H59.3857ZM78.47 1.36364H84.5964L92.801 21.3892H93.1248L101.329 1.36364H107.456V29H102.652V10.0135H102.395L94.7576 28.919H91.1681L83.5304 9.97301H83.274V29H78.47V1.36364ZM112.907 29V1.36364H130.882V5.56037H117.914V13.0632H129.951V17.2599H117.914V24.8033H130.99V29H112.907Z" fill="white"/>
</svg>
