<svg width="148" height="30" viewBox="0 0 148 30" fill="none" xmlns="http://www.w3.org/2000/svg">
<path d="M3.69318 1.36364H6.69318V-1.63636H3.69318V1.36364ZM3.69318 29V32H6.69318V29H3.69318ZM0.346591 29H-2.65341V32H0.346591V29ZM0.346591 1.36364V-1.63636H-2.65341V1.36364H0.346591ZM0.693182 1.36364V29H6.69318V1.36364H0.693182ZM3.69318 26H0.346591V32H3.69318V26ZM3.34659 29V1.36364H-2.65341V29H3.34659ZM0.346591 4.36364H3.69318V-1.63636H0.346591V4.36364ZM12.3119 4.33239H9.31187V7.33239H12.3119V4.33239ZM12.3119 1.36364V-1.63636H9.31187V1.36364H12.3119ZM33.0391 1.36364H36.0391V-1.63636H33.0391V1.36364ZM33.0391 4.33239V7.33239H36.0391V4.33239H33.0391ZM24.3488 4.33239V1.33239H21.3488V4.33239H24.3488ZM24.3488 29V32H27.3488V29H24.3488ZM21.0022 29H18.0022V32H21.0022V29ZM21.0022 4.33239H24.0022V1.33239H21.0022V4.33239ZM15.3119 4.33239V1.36364H9.31187V4.33239H15.3119ZM12.3119 4.36364H33.0391V-1.63636H12.3119V4.36364ZM30.0391 1.36364V4.33239H36.0391V1.36364H30.0391ZM33.0391 1.33239H24.3488V7.33239H33.0391V1.33239ZM21.3488 4.33239V29H27.3488V4.33239H21.3488ZM24.3488 26H21.0022V32H24.3488V26ZM24.0022 29V4.33239H18.0022V29H24.0022ZM21.0022 1.33239H12.3119V7.33239H21.0022V1.33239ZM43.9991 1.36364H46.9991V-1.63636H43.9991V1.36364ZM43.5943 6.15412L40.7391 5.23311L40.7361 5.24265L40.733 5.25221L43.5943 6.15412ZM42.4338 8.5696L39.9244 6.92552L39.9198 6.93258L42.4338 8.5696ZM40.5985 10.5938L38.7067 12.9221L40.5839 14.4473L42.4726 12.9364L40.5985 10.5938ZM38.8713 9.19034L36.4136 7.46995L34.8121 9.75771L36.9795 11.5187L38.8713 9.19034ZM40.3421 6.6669L37.6371 5.3696L37.6315 5.38144L40.3421 6.6669ZM40.9764 1.36364V-1.63636H37.9764V1.36364H40.9764ZM40.9991 1.36364V3.79261H46.9991V1.36364H40.9991ZM40.9991 3.79261C40.9991 4.16436 40.9309 4.63871 40.7391 5.23311L46.4494 7.07513C46.7974 5.99623 46.9991 4.89625 46.9991 3.79261H40.9991ZM40.733 5.25221C40.561 5.79785 40.2981 6.35504 39.9244 6.92552L44.9431 10.2137C45.5949 9.21882 46.1057 8.16569 46.4555 7.05603L40.733 5.25221ZM39.9198 6.93258C39.59 7.43895 39.1942 7.87535 38.7244 8.25115L42.4726 12.9364C43.4423 12.1606 44.2699 11.2476 44.9477 10.2066L39.9198 6.93258ZM42.4903 8.26541L40.763 6.862L36.9795 11.5187L38.7067 12.9221L42.4903 8.26541ZM41.3289 10.9107C41.9898 9.96664 42.5653 8.9803 43.0528 7.95236L37.6315 5.38144C37.2913 6.09877 36.8862 6.79472 36.4136 7.46995L41.3289 10.9107ZM43.0471 7.9642C43.6684 6.66886 43.9764 5.28436 43.9764 3.84659H37.9764C37.9764 4.40598 37.8615 4.90169 37.6371 5.36961L43.0471 7.9642ZM43.9764 3.84659V1.36364H37.9764V3.84659H43.9764ZM40.9764 4.36364H43.9991V-1.63636H40.9764V4.36364ZM67.1714 8.27273L64.1922 8.62552L64.5057 11.2727H67.1714V8.27273ZM65.2012 5.08807L63.5553 7.59621L63.5553 7.59621L65.2012 5.08807ZM57.7524 4.54829L56.5641 1.79364L56.5542 1.79795L57.7524 4.54829ZM55.6203 6.18111L53.209 4.39617L53.2015 4.40635L53.1941 4.41659L55.6203 6.18111ZM55.3909 10.4453L52.8882 12.0996L52.9045 12.1242L52.9212 12.1485L55.3909 10.4453ZM56.7673 11.7543L55.1699 14.2936L55.1847 14.3029L55.1996 14.3121L56.7673 11.7543ZM58.5215 12.6044L57.4863 15.4201L57.5047 15.4269L57.5231 15.4334L58.5215 12.6044ZM60.2083 13.1307L60.9883 10.2338L60.98 10.2316L60.9718 10.2295L60.2083 13.1307ZM63.0152 13.8864L62.2352 16.7832L62.2443 16.7857L62.2535 16.7881L63.0152 13.8864ZM65.4171 14.669L64.3575 17.4757L64.3669 17.4792L65.4171 14.669ZM67.9676 16.032L66.229 18.4768L66.2444 18.4878L66.2599 18.4985L67.9676 16.032ZM69.9917 18.218L72.5688 16.6822L72.5688 16.6822L69.9917 18.218ZM69.6139 25.5455L67.0977 23.9118L67.0934 23.9184L67.0891 23.9251L69.6139 25.5455ZM66.2133 28.4197L64.9241 25.7109L64.9178 25.7139L66.2133 28.4197ZM55.6607 28.5277L54.4439 31.2698L54.4502 31.2726L55.6607 28.5277ZM52.2602 25.8558L49.8216 27.6032L49.8261 27.6095L49.8307 27.6158L52.2602 25.8558ZM50.8703 21.875V18.875H47.6483L47.8779 22.0887L50.8703 21.875ZM54.3248 21.875L57.3137 21.6173L57.0773 18.875H54.3248V21.875ZM55.3774 24.4659L53.1416 26.4663L53.1555 26.4818L53.1696 26.4971L55.3774 24.4659ZM57.7254 25.9773L56.7283 28.8067L56.7444 28.8124L56.7606 28.8179L57.7254 25.9773ZM64.2431 25.8423L65.3742 28.6209L65.3848 28.6166L65.3952 28.6123L64.2431 25.8423ZM66.6586 24.0881L69.0067 25.9552L69.0122 25.9484L69.0176 25.9415L66.6586 24.0881ZM66.7801 19.2031L69.0204 17.2079L69.0204 17.2079L66.7801 19.2031ZM64.7559 17.7997L63.5706 20.5556L63.5706 20.5556L64.7559 17.7997ZM62.0436 16.8551L61.2194 19.7397L61.23 19.7427L61.2406 19.7457L62.0436 16.8551ZM58.643 15.8835L57.8141 18.7667L57.8188 18.7681L58.643 15.8835ZM53.5152 13.2251L51.4908 15.4392L51.4908 15.4392L53.5152 13.2251ZM52.8809 4.65625L50.4563 2.8895L50.4539 2.89286L52.8809 4.65625ZM56.2815 1.95739L57.5111 4.69381L57.519 4.69025L56.2815 1.95739ZM65.822 1.94389L64.5659 4.66829L64.5732 4.67166L64.5806 4.67499L65.822 1.94389ZM69.1146 4.5348L66.7004 6.31574L66.7051 6.32213L66.7099 6.32849L69.1146 4.5348ZM70.41 8.27273V11.2727H73.5084L73.4085 8.176L70.41 8.27273ZM70.1506 7.91993C69.8844 5.67214 68.7394 3.82171 66.8472 2.57992L63.5553 7.59621C63.966 7.86579 64.1345 8.13847 64.1922 8.62552L70.1506 7.91993ZM66.8472 2.57992C65.1105 1.44019 63.0953 0.954544 60.964 0.954544V6.95454C62.1793 6.95454 62.989 7.22458 63.5553 7.59621L66.8472 2.57992ZM60.964 0.954544C59.4212 0.954544 57.9311 1.20398 56.5641 1.79366L58.9406 7.30293C59.4089 7.10094 60.0599 6.95454 60.964 6.95454V0.954544ZM56.5542 1.79795C55.2369 2.37182 54.079 3.22102 53.209 4.39617L58.0315 7.96604C58.1871 7.75577 58.4506 7.51643 58.9505 7.29864L56.5542 1.79795ZM53.1941 4.41659C52.3058 5.63792 51.8646 7.04685 51.8646 8.54261H57.8646C57.8646 8.27512 57.9271 8.10971 58.0465 7.94562L53.1941 4.41659ZM51.8646 8.54261C51.8646 9.77247 52.1637 11.0036 52.8882 12.0996L57.8935 8.79102C57.8976 8.79724 57.8943 8.79593 57.8876 8.7718C57.88 8.74443 57.8646 8.67336 57.8646 8.54261H51.8646ZM52.9212 12.1485C53.5213 13.0186 54.2816 13.7349 55.1699 14.2936L58.3646 9.21488C58.1374 9.07194 57.9801 8.9156 57.8605 8.74211L52.9212 12.1485ZM55.1996 14.3121C55.9253 14.7568 56.6884 15.1268 57.4863 15.4201L59.5567 9.78867C59.1313 9.63224 58.7248 9.43538 58.335 9.19646L55.1996 14.3121ZM57.5231 15.4334C58.1958 15.6708 58.8376 15.8721 59.4449 16.0319L60.9718 10.2295C60.5535 10.1194 60.0708 9.96982 59.52 9.77543L57.5231 15.4334ZM59.4284 16.0275L62.2352 16.7832L63.7951 10.9895L60.9883 10.2338L59.4284 16.0275ZM62.2535 16.7881C62.8499 16.9446 63.5491 17.1705 64.3575 17.4757L66.4768 11.8624C65.5219 11.5019 64.6198 11.206 63.7768 10.9847L62.2535 16.7881ZM64.3669 17.4792C65.0024 17.7167 65.6224 18.0454 66.229 18.4768L69.7061 13.5871C68.6935 12.867 67.6131 12.2871 66.4674 11.8589L64.3669 17.4792ZM66.2599 18.4985C66.7109 18.8107 67.0944 19.2165 67.4147 19.7539L72.5688 16.6822C71.8274 15.4383 70.8616 14.3867 69.6752 13.5654L66.2599 18.4985ZM67.4147 19.7539C67.6074 20.0772 67.7879 20.6087 67.7879 21.4972H73.7879C73.7879 19.7947 73.4376 18.1401 72.5688 16.6822L67.4147 19.7539ZM67.7879 21.4972C67.7879 22.4345 67.5518 23.2123 67.0977 23.9118L72.1301 27.1791C73.2412 25.4676 73.7879 23.5465 73.7879 21.4972H67.7879ZM67.0891 23.9251C66.6621 24.5905 65.9918 25.2027 64.9241 25.7109L67.5025 31.1286C69.4215 30.2154 71.0183 28.9114 72.1386 27.1658L67.0891 23.9251ZM64.9178 25.7139C63.9375 26.1833 62.6022 26.4858 60.8021 26.4858V32.4858C63.2482 32.4858 65.5204 32.0776 67.5088 31.1256L64.9178 25.7139ZM60.8021 26.4858C59.1387 26.4858 57.8555 26.2168 56.8712 25.7828L54.4502 31.2726C56.3628 32.1161 58.5072 32.4858 60.8021 32.4858V26.4858ZM56.8776 25.7856C55.8644 25.336 55.1719 24.7615 54.6897 24.0959L49.8307 27.6158C51.0038 29.2352 52.5783 30.442 54.4439 31.2698L56.8776 25.7856ZM54.6988 24.1085C54.2279 23.4514 53.9343 22.6649 53.8626 21.6613L47.8779 22.0887C48.0221 24.1078 48.6551 25.9752 49.8216 27.6032L54.6988 24.1085ZM50.8703 24.875H54.3248V18.875H50.8703V24.875ZM51.3359 22.1327C51.4734 23.7276 52.0368 25.2315 53.1416 26.4663L57.6131 22.4655C57.4944 22.3329 57.3562 22.1095 57.3137 21.6173L51.3359 22.1327ZM53.1696 26.4971C54.1526 27.5655 55.3646 28.3262 56.7283 28.8067L58.7224 23.1478C58.1969 22.9626 57.8437 22.7157 57.5852 22.4347L53.1696 26.4971ZM56.7606 28.8179C58.0516 29.2564 59.4058 29.4631 60.8021 29.4631V23.4631C60.0033 23.4631 59.3064 23.3459 58.6901 23.1366L56.7606 28.8179ZM60.8021 29.4631C62.4046 29.4631 63.9446 29.2029 65.3742 28.6209L63.112 23.0637C62.5085 23.3094 61.7545 23.4631 60.8021 23.4631V29.4631ZM65.3952 28.6123C66.8075 28.0249 68.0514 27.1567 69.0067 25.9552L64.3105 22.2209C64.0784 22.5128 63.7119 22.8141 63.091 23.0724L65.3952 28.6123ZM69.0176 25.9415C70.0477 24.6304 70.5492 23.0879 70.5492 21.4432H64.5492C64.5492 21.8136 64.457 22.0344 64.2997 22.2346L69.0176 25.9415ZM70.5492 21.4432C70.5492 19.9374 70.1125 18.4341 69.0204 17.2079L64.5398 21.1984C64.5354 21.1934 64.529 21.1851 64.5233 21.1753C64.5177 21.1657 64.5171 21.1622 64.5196 21.1692C64.5242 21.1828 64.5492 21.2632 64.5492 21.4432H70.5492ZM69.0204 17.2079C68.1676 16.2504 67.1086 15.5459 65.9413 15.0438L63.5706 20.5556C64.0765 20.7732 64.367 21.0044 64.5398 21.1984L69.0204 17.2079ZM65.9413 15.0438C64.968 14.6252 63.9348 14.2669 62.8465 13.9646L61.2406 19.7457C62.0955 19.9831 62.8706 20.2545 63.5706 20.5556L65.9413 15.0438ZM62.8677 13.9705L59.4672 12.999L57.8188 18.7681L61.2194 19.7397L62.8677 13.9705ZM59.4719 13.0003C57.6225 12.4686 56.3669 11.7676 55.5395 11.0111L51.4908 15.4392C53.1823 16.9857 55.3453 18.057 57.8141 18.7667L59.4719 13.0003ZM55.5395 11.0111C54.9623 10.4833 54.6259 9.81034 54.6259 8.70454H48.6259C48.6259 11.3232 49.5491 13.6639 51.4908 15.4392L55.5395 11.0111ZM54.6259 8.70454C54.6259 7.73253 54.8765 7.01343 55.3079 6.41964L50.4539 2.89286C49.212 4.6021 48.6259 6.58186 48.6259 8.70454H54.6259ZM55.3055 6.423C55.818 5.71964 56.5238 5.13747 57.5111 4.6938L55.0518 -0.779027C53.1964 0.0547597 51.6351 1.27184 50.4563 2.8895L55.3055 6.423ZM57.519 4.69025C58.5154 4.23907 59.6829 3.98579 61.072 3.98579V-2.01421C58.9345 -2.01421 56.9084 -1.61976 55.044 -0.775477L57.519 4.69025ZM61.072 3.98579C62.4917 3.98579 63.635 4.23909 64.5659 4.66829L67.078 -0.780505C65.2381 -1.62877 63.2148 -2.01421 61.072 -2.01421V3.98579ZM64.5806 4.67499C65.5555 5.11813 66.2283 5.67572 66.7004 6.31574L71.5288 2.75385C70.3816 1.19881 68.8593 0.0291252 67.0634 -0.787209L64.5806 4.67499ZM66.7099 6.32849C67.1544 6.92452 67.386 7.57569 67.4116 8.36945L73.4085 8.176C73.3441 6.18093 72.712 4.34016 71.5193 2.74111L66.7099 6.32849ZM70.41 5.27273H67.1714V11.2727H70.41V5.27273ZM93.8177 1.36364V-1.63636H90.8177V1.36364H93.8177ZM97.812 1.36364L100.588 0.226974L99.8255 -1.63636H97.812V1.36364ZM107.204 24.304L104.428 25.4406L105.191 27.304H107.204V24.304ZM107.528 24.304V27.304H109.541L110.304 25.4406L107.528 24.304ZM116.92 1.36364V-1.63636H114.907L114.144 0.226974L116.92 1.36364ZM120.914 1.36364H123.914V-1.63636H120.914V1.36364ZM120.914 29V32H123.914V29H120.914ZM117.784 29H114.784V32H117.784V29ZM117.784 8.00284H120.784V5.00284H117.784V8.00284ZM117.514 8.00284V5.00284H115.504L114.739 6.86167L117.514 8.00284ZM108.877 29V32H110.887L111.652 30.1412L108.877 29ZM105.855 29L103.08 30.1412L103.845 32H105.855V29ZM97.2183 8.00284L99.9927 6.86167L99.2282 5.00284H97.2183V8.00284ZM96.9484 8.00284V5.00284H93.9484V8.00284H96.9484ZM96.9484 29V32H99.9484V29H96.9484ZM93.8177 29H90.8177V32H93.8177V29ZM93.8177 4.36364H97.812V-1.63636H93.8177V4.36364ZM95.0357 2.5003L104.428 25.4406L109.98 23.1673L100.588 0.226974L95.0357 2.5003ZM107.204 27.304H107.528V21.304H107.204V27.304ZM110.304 25.4406L119.696 2.5003L114.144 0.226974L104.752 23.1673L110.304 25.4406ZM116.92 4.36364H120.914V-1.63636H116.92V4.36364ZM117.914 1.36364V29H123.914V1.36364H117.914ZM120.914 26H117.784V32H120.914V26ZM120.784 29V8.00284H114.784V29H120.784ZM117.784 5.00284H117.514V11.0028H117.784V5.00284ZM114.739 6.86167L106.103 27.8588L111.652 30.1412L120.288 9.14401L114.739 6.86167ZM108.877 26H105.855V32H108.877V26ZM108.629 27.8588L99.9927 6.86167L94.4438 9.14401L103.08 30.1412L108.629 27.8588ZM97.2183 5.00284H96.9484V11.0028H97.2183V5.00284ZM93.9484 8.00284V29H99.9484V8.00284H93.9484ZM96.9484 26H93.8177V32H96.9484V26ZM96.8177 29V1.36364H90.8177V29H96.8177ZM131.044 29H128.044V32H131.044V29ZM131.044 1.36364V-1.63636H128.044V1.36364H131.044ZM147.723 1.36364H150.723V-1.63636H147.723V1.36364ZM147.723 4.33239V7.33239H150.723V4.33239H147.723ZM134.391 4.33239V1.33239H131.391V4.33239H134.391ZM134.391 13.6705H131.391V16.6705H134.391V13.6705ZM146.86 13.6705H149.86V10.6705H146.86V13.6705ZM146.86 16.6392V19.6392H149.86V16.6392H146.86ZM134.391 16.6392V13.6392H131.391V16.6392H134.391ZM134.391 26.0312H131.391V29.0312H134.391V26.0312ZM147.939 26.0312H150.939V23.0312H147.939V26.0312ZM147.939 29V32H150.939V29H147.939ZM134.044 29V1.36364H128.044V29H134.044ZM131.044 4.36364H147.723V-1.63636H131.044V4.36364ZM144.723 1.36364V4.33239H150.723V1.36364H144.723ZM147.723 1.33239H134.391V7.33239H147.723V1.33239ZM131.391 4.33239V13.6705H137.391V4.33239H131.391ZM134.391 16.6705H146.86V10.6705H134.391V16.6705ZM143.86 13.6705V16.6392H149.86V13.6705H143.86ZM146.86 13.6392H134.391V19.6392H146.86V13.6392ZM131.391 16.6392V26.0312H137.391V16.6392H131.391ZM134.391 29.0312H147.939V23.0312H134.391V29.0312ZM144.939 26.0312V29H150.939V26.0312H144.939ZM147.939 26H131.044V32H147.939V26Z" fill="white"/>
</svg>
