<svg width="51" height="13" viewBox="0 0 51 13" fill="none" xmlns="http://www.w3.org/2000/svg">
<path d="M1.64205 1.09091V12H0.321023V1.09091H1.64205ZM3.69416 2.26278V1.09091H11.876V2.26278H8.44558V12H7.12456V2.26278H3.69416ZM14.8523 1.09091V2.04972C14.8523 2.34091 14.799 2.65163 14.6925 2.98189C14.5895 3.30859 14.4368 3.62642 14.2344 3.93537C14.0355 4.24077 13.794 4.5071 13.5099 4.73438L12.8281 4.1804C13.0518 3.8608 13.2454 3.52876 13.4087 3.1843C13.5756 2.83629 13.6591 2.4652 13.6591 2.07102V1.09091H14.8523ZM22.6492 3.81818C22.5853 3.27841 22.3261 2.85938 21.8715 2.56108C21.417 2.26278 20.8595 2.11364 20.199 2.11364C19.716 2.11364 19.2934 2.19176 18.9312 2.34801C18.5725 2.50426 18.292 2.7191 18.0896 2.99254C17.8907 3.26598 17.7913 3.5767 17.7913 3.92472C17.7913 4.21591 17.8605 4.46626 17.999 4.67578C18.1411 4.88175 18.3222 5.05398 18.5423 5.19247C18.7625 5.32741 18.9933 5.43928 19.2348 5.52805C19.4763 5.61328 19.6982 5.68253 19.9007 5.7358L21.0086 6.03409C21.2927 6.10866 21.6088 6.21165 21.9568 6.34304C22.3083 6.47443 22.6439 6.65376 22.9635 6.88104C23.2867 7.10476 23.553 7.3924 23.7625 7.74396C23.972 8.09553 24.0768 8.52699 24.0768 9.03835C24.0768 9.62784 23.9223 10.1605 23.6134 10.6364C23.308 11.1122 22.8605 11.4904 22.271 11.771C21.6851 12.0515 20.9731 12.1918 20.135 12.1918C19.3538 12.1918 18.6773 12.0657 18.1056 11.8136C17.5374 11.5614 17.0899 11.2099 16.7632 10.7589C16.4401 10.3079 16.2572 9.78409 16.2146 9.1875H17.5782C17.6137 9.59943 17.7522 9.94034 17.9937 10.2102C18.2387 10.4766 18.5477 10.6754 18.9205 10.8068C19.297 10.9347 19.7018 10.9986 20.135 10.9986C20.6393 10.9986 21.0921 10.9169 21.4933 10.7536C21.8946 10.5866 22.2124 10.3558 22.4468 10.0611C22.6812 9.76278 22.7984 9.41477 22.7984 9.01705C22.7984 8.65483 22.6972 8.36009 22.4948 8.13281C22.2923 7.90554 22.026 7.72088 21.6958 7.57884C21.3655 7.43679 21.0086 7.3125 20.6251 7.20597L19.2828 6.82244C18.4305 6.57741 17.7558 6.22763 17.2586 5.77308C16.7615 5.31854 16.5129 4.72372 16.5129 3.98864C16.5129 3.37784 16.678 2.84517 17.0083 2.39062C17.3421 1.93253 17.7895 1.57741 18.3506 1.32528C18.9152 1.0696 19.5455 0.941761 20.2416 0.941761C20.9447 0.941761 21.5697 1.06783 22.1166 1.31996C22.6634 1.56854 23.0967 1.90945 23.4163 2.34268C23.7394 2.77592 23.9099 3.26776 23.9276 3.81818H22.6492ZM30.4675 1.09091H32.0442L35.7516 10.1463H35.8794L39.5868 1.09091H41.1635V12H39.9277V3.71165H39.8212L36.4121 12H35.2189L31.8098 3.71165H31.7033V12H30.4675V1.09091ZM43.8122 12V1.09091H50.396V2.26278H45.1333V5.94886H50.0551V7.12074H45.1333V10.8281H50.4813V12H43.8122Z" fill="white"/>
</svg>
