<svg width="50" height="49" viewBox="0 0 50 49" fill="none"
    xmlns="http://www.w3.org/2000/svg">
    <path d="M3.79611 0.25949L48.4919 21.6357C49.813 22.2675 50.3717 23.8507 49.7399 25.1717C49.4786 25.718 49.0382 26.1584 48.4919 26.4197L3.79611 47.7959C2.47506 48.4277 0.891959 47.869 0.260152 46.548C-0.0143991 45.9739 -0.0733389 45.3202 0.0940926 44.7063L4.56456 28.3141C4.67656 27.9034 5.02323 27.5995 5.44503 27.5422L27.1034 24.6002C27.2901 24.5736 27.4447 24.4509 27.5162 24.2835L27.5534 24.1503C27.5889 23.9018 27.446 23.6689 27.2218 23.5814L27.1034 23.5503L5.47037 20.6084C5.04863 20.5511 4.70203 20.2472 4.59006 19.8365L0.0940926 3.34911C-0.291206 1.93635 0.541718 0.478729 1.95448 0.0934297C2.5684 -0.0740019 3.22205 -0.0150616 3.79611 0.25949Z" fill="white"/>
</svg>
