<svg width="50" height="50" viewBox="0 0 50 50" fill="none" xmlns="http://www.w3.org/2000/svg">
<path d="M25 4.6875C13.7822 4.6875 4.6875 13.7822 4.6875 25C4.6875 36.2178 13.7822 45.3125 25 45.3125C36.2178 45.3125 45.3125 36.2178 45.3125 25C45.3125 13.7822 36.2178 4.6875 25 4.6875ZM34.375 28.125H25C24.5856 28.125 24.1882 27.9604 23.8951 27.6674C23.6021 27.3743 23.4375 26.9769 23.4375 26.5625V12.5C23.4375 12.0856 23.6021 11.6882 23.8951 11.3951C24.1882 11.1021 24.5856 10.9375 25 10.9375C25.4144 10.9375 25.8118 11.1021 26.1049 11.3951C26.3979 11.6882 26.5625 12.0856 26.5625 12.5V25H34.375C34.7894 25 35.1868 25.1646 35.4799 25.4576C35.7729 25.7507 35.9375 26.1481 35.9375 26.5625C35.9375 26.9769 35.7729 27.3743 35.4799 27.6674C35.1868 27.9604 34.7894 28.125 34.375 28.125Z" fill="white"/>
</svg>
